<svg width="1536" height="56" viewBox="0 0 1536 56" fill="none" xmlns="http://www.w3.org/2000/svg">
<g clip-path="url(#clip0)">
<rect width="1536" height="56" fill="#FBAE3C"/>
<path d="M1585.21 -357.105H-1.83984V700.925H1585.21V-357.105Z" fill="#002233"/>
<path d="M1072.06 121.295C1094.46 121.295 1112.62 103.137 1112.62 80.7375C1112.62 58.338 1094.46 40.1797 1072.06 40.1797C1049.66 40.1797 1031.5 58.338 1031.5 80.7375C1031.5 103.137 1049.66 121.295 1072.06 121.295Z" fill="#163D50"/>
<path d="M167.447 103.136C188.872 103.136 206.241 85.7669 206.241 64.3413C206.241 42.9157 188.872 25.5469 167.447 25.5469C146.021 25.5469 128.652 42.9157 128.652 64.3413C128.652 85.7669 146.021 103.136 167.447 103.136Z" fill="#163D50"/>
<path d="M1527.01 39.6527C1539.67 39.6527 1549.94 29.3892 1549.94 16.7287C1549.94 4.0681 1539.67 -6.19531 1527.01 -6.19531C1514.35 -6.19531 1504.09 4.0681 1504.09 16.7287C1504.09 29.3892 1514.35 39.6527 1527.01 39.6527Z" fill="#163D50"/>
<path d="M463.09 50.2342C469.907 50.2342 475.433 44.7078 475.433 37.8906C475.433 31.0733 469.907 25.5469 463.09 25.5469C456.273 25.5469 450.746 31.0733 450.746 37.8906C450.746 44.7078 456.273 50.2342 463.09 50.2342Z" fill="#163D50"/>
<path d="M326.149 55.5241C351.47 55.5241 371.997 34.9972 371.997 9.67609C371.997 -15.645 351.47 -36.1719 326.149 -36.1719C300.828 -36.1719 280.301 -15.645 280.301 9.67609C280.301 34.9972 300.828 55.5241 326.149 55.5241Z" fill="#163D50"/>
<path d="M841.057 82.4455C860.535 82.4455 876.324 66.6556 876.324 47.1778C876.324 27.7 860.535 11.9102 841.057 11.9102C821.579 11.9102 805.789 27.7 805.789 47.1778C805.789 66.6556 821.579 82.4455 841.057 82.4455Z" fill="#163D50"/>
<path d="M1354.2 32.6001C1369.78 32.6001 1382.42 19.9682 1382.42 4.38601C1382.42 -11.1962 1369.78 -23.8281 1354.2 -23.8281C1338.62 -23.8281 1325.99 -11.1962 1325.99 4.38601C1325.99 19.9682 1338.62 32.6001 1354.2 32.6001Z" fill="#163D50"/>
<path d="M1202.55 50.9964C1215.21 50.9964 1225.48 40.733 1225.48 28.0724C1225.48 15.4119 1215.21 5.14844 1202.55 5.14844C1189.89 5.14844 1179.63 15.4119 1179.63 28.0724C1179.63 40.733 1189.89 50.9964 1202.55 50.9964Z" fill="#163D50"/>
<path d="M613.582 17.3095C625.269 17.3095 634.743 7.83556 634.743 -3.85112C634.743 -15.5378 625.269 -25.0117 613.582 -25.0117C601.896 -25.0117 592.422 -15.5378 592.422 -3.85112C592.422 7.83556 601.896 17.3095 613.582 17.3095Z" fill="#163D50"/>
</g>
<defs>
<clipPath id="clip0">
<rect width="1536" height="56" fill="white"/>
</clipPath>
</defs>
</svg>
